<svg width="99" height="112" viewBox="0 0 99 112" fill="none" xmlns="http://www.w3.org/2000/svg">
<path d="M0 0L8.90555 100.504L49.4933 112L89.919 100.504L99 0H0ZM82.4303 94.3115L49.4933 103.681L16.4078 94.3115L8.75712 7.99615H90.2294L82.4303 94.3115ZM18.3508 20.5962L18.5802 23.8673L21.6432 57.9923H49.5067V57.9789H64.7406L63.2024 73.9308L49.3853 77.6596V77.6865H49.2774L35.4603 73.9577L34.5832 64.1039H22.3043L23.8291 83.5827L49.2774 90.5827H49.5067V90.5289L74.8336 83.5692L75.063 81.375L77.9235 48.7712L78.3553 45.5H49.3853V45.5269H33.045L31.9385 32.8462H79.4483L79.6777 30.2212L80.3253 23.8673L80.5547 20.5962H49.3853H18.3508Z" fill="#1EA6DB"/>
</svg>
