<svg width="111" height="125" viewBox="0 0 111 125" fill="none" xmlns="http://www.w3.org/2000/svg">
<path d="M54.9872 124.097C53.3374 124.097 51.6629 123.654 50.21 122.816L35.0165 113.828C32.751 112.548 33.8591 112.105 34.5979 111.858C37.6267 110.799 38.2424 110.578 41.4682 108.731C41.813 108.534 42.2562 108.608 42.601 108.829L54.2731 115.749C54.6917 115.995 55.2827 115.995 55.6767 115.749L101.159 89.4989C101.577 89.2527 101.848 88.7602 101.848 88.2677V35.7676C101.848 35.2504 101.577 34.7826 101.134 34.5117L55.6767 8.28626C55.2581 8.04001 54.6917 8.04001 54.2731 8.28626L8.84031 34.5363C8.39707 34.7826 8.12619 35.2751 8.12619 35.7922V88.2677C8.12619 88.7602 8.39707 89.2527 8.84031 89.4743L21.3005 96.6648C28.0723 100.038 32.2093 96.0738 32.2093 92.0599V40.2493C32.2093 39.5105 32.8003 38.9442 33.539 38.9442H39.3012C40.0153 38.9442 40.631 39.5105 40.631 40.2493V92.0846C40.631 101.097 35.706 106.268 27.1612 106.268C24.5263 106.268 22.4578 106.268 16.6956 103.412L4.77722 96.5416C1.82224 94.8425 0 91.6659 0 88.2431V35.7676C0 32.3693 1.82224 29.1681 4.77722 27.469L50.21 1.21893C53.0911 -0.40631 56.908 -0.40631 59.7645 1.21893L105.247 27.4936C108.201 29.1927 110.024 32.3693 110.024 35.7922V88.2677C110.024 91.6659 108.201 94.8425 105.247 96.5663L59.7645 122.816C58.3116 123.654 56.6617 124.097 54.9872 124.097ZM91.7029 72.3601C91.7029 62.5348 85.0541 59.9245 71.0919 58.0777C56.9572 56.2062 55.529 55.2458 55.529 51.9461C55.529 49.2127 56.7356 45.5682 67.2012 45.5682C76.534 45.5682 79.9814 47.5875 81.4097 53.8914C81.5328 54.4824 82.0745 54.9257 82.6902 54.9257H88.6001C88.9695 54.9257 89.3142 54.7779 89.5605 54.5071C89.8067 54.2362 89.9299 53.8668 89.9052 53.4974C88.9941 42.6379 81.7791 37.5898 67.2012 37.5898C54.2239 37.5898 46.4917 43.0565 46.4917 52.2416C46.4917 62.19 54.1992 64.948 66.6348 66.1792C81.5328 67.6321 82.6902 69.8237 82.6902 72.7541C82.6902 77.8268 78.6024 79.9938 69.0234 79.9938C56.9818 79.9938 54.347 76.9649 53.4605 70.9811C53.362 70.3408 52.8203 69.873 52.1554 69.873H46.2701C45.5313 69.873 44.9649 70.464 44.9649 71.1781C44.9649 78.8364 49.1265 87.9722 69.048 87.9722C83.4289 87.9476 91.7029 82.2592 91.7029 72.3601Z" fill="#1EA6DB"/>
</svg>
