<svg width="57" height="56" viewBox="0 0 57 56" fill="none" xmlns="http://www.w3.org/2000/svg">
<path d="M0.889026 35.8559L6.33077 33.3524C7.38056 34.7674 8.33555 35.9646 10.6262 35.9646C12.822 35.9646 14.2064 35.3117 14.2064 32.772V15.5H20.8889V32.8438C20.8889 38.1051 16.8318 40.5 10.9126 40.5C5.56707 40.5 2.46413 38.3959 0.889026 35.8559Z" fill="white"/>
<path d="M35.8889 35.3708L40.5702 33.0037C41.8027 34.7613 43.4044 36.0525 46.2378 36.0525C48.6203 36.0525 50.1393 35.0122 50.1393 33.5774C50.1393 31.8559 48.5787 31.246 45.9503 30.242L44.5133 29.7037C40.3652 28.1617 37.6135 26.2247 37.6135 22.1358C37.6135 18.3695 40.8991 15.5 46.0328 15.5C49.6879 15.5 52.3163 16.6121 54.2052 19.5173L49.7287 22.0281C48.7429 20.4858 47.6756 19.8761 46.0328 19.8761C44.3489 19.8761 43.2811 20.8087 43.2811 22.0281C43.2811 23.5344 44.3489 24.1443 46.8128 25.0771L48.2501 25.615C53.1372 27.4445 55.8889 29.3092 55.8889 33.5056C55.8889 38.0254 51.8232 40.5 46.3612 40.5C41.0224 40.5 37.5726 38.2762 35.8889 35.3708Z" fill="white"/>
</svg>
