<svg width="57" height="56" viewBox="0 0 57 56" fill="none" xmlns="http://www.w3.org/2000/svg">
<g clip-path="url(#clip0_268_168)">
<path d="M38.3884 23.5355C36.0835 13.3677 31.2797 10.6609 30.0543 8.74751C29.549 7.9046 29.1012 7.02842 28.7144 6.125C28.6497 7.02826 28.5307 7.59734 27.7629 8.28231C26.2213 9.65681 19.6741 14.9921 19.1231 26.5449C18.6097 37.3166 27.0419 43.9585 28.1557 44.6451C29.0124 45.0667 30.0556 44.6541 30.5646 44.2671C34.6292 41.4776 40.1828 34.0406 38.3928 23.5355" fill="#10AA50"/>
<path d="M29.0636 38.9093C28.8514 41.5754 28.6994 43.1246 28.1604 44.6482C28.1604 44.6482 28.5141 47.1863 28.7626 49.875H29.6418C29.8516 47.9817 30.1716 46.1022 30.6008 44.2461C29.4626 43.6861 29.1074 41.2488 29.0636 38.9093Z" fill="#B8C4C2"/>
<path d="M30.5992 44.2476C29.449 43.7163 29.1163 41.2276 29.0651 38.9093C29.3495 35.0849 29.4324 31.2482 29.3136 27.415C29.2532 25.4039 29.342 8.78665 28.8181 6.35382C29.1766 7.17781 29.5894 7.97697 30.0543 8.74601C31.2797 10.6609 36.085 13.3677 38.3884 23.5355C40.1828 34.0226 34.6594 41.44 30.5992 44.2476Z" fill="#12924F"/>
</g>
<defs>
<clipPath id="clip0_268_168">
<rect width="56" height="56" fill="white" transform="translate(0.944336)"/>
</clipPath>
</defs>
</svg>
