<svg width="57" height="56" viewBox="0 0 57 56" fill="none" xmlns="http://www.w3.org/2000/svg">
<g clip-path="url(#clip0_268_192)">
<path d="M32.5968 3.9375C32.2564 3.9375 31.9403 4.01236 31.6485 4.11217C32.2686 4.53642 32.609 5.09788 32.7792 5.73423C32.7914 5.82157 32.8157 5.88396 32.8278 5.97128C32.84 6.04616 32.8523 6.12102 32.8523 6.1959C32.9008 7.29389 32.5725 7.43113 32.3415 8.07995C31.9888 8.91594 32.0862 9.81431 32.5117 10.538C32.5482 10.6253 32.5968 10.7251 32.6576 10.8125C32.1956 7.65573 34.7611 7.18158 35.2353 6.1959C35.2716 5.33496 34.5786 4.76101 34.0315 4.36172C33.5087 4.03732 33.0345 3.9375 32.5968 3.9375ZM36.4634 4.6487C36.4146 4.93568 36.4511 4.86082 36.4391 5.01056C36.4268 5.11037 36.4268 5.23515 36.4146 5.33496C36.3903 5.43478 36.366 5.53459 36.3295 5.63441C36.3052 5.73422 36.2687 5.83404 36.2324 5.93386C36.1836 6.03369 36.1473 6.12102 36.0985 6.22083C36.0622 6.27078 36.0377 6.32065 36.0014 6.37057C35.9771 6.408 35.9526 6.44542 35.9283 6.48287C35.8675 6.57022 35.8067 6.65755 35.7459 6.7324C35.673 6.80728 35.6122 6.89461 35.5271 6.95702C35.5271 6.96951 35.5271 6.96951 35.5271 6.96951C35.4541 7.03189 35.3812 7.10675 35.2961 7.16914C35.0408 7.36877 34.749 7.5185 34.4815 7.70567C34.3964 7.76803 34.3113 7.81795 34.2383 7.89281C34.1532 7.95519 34.0803 8.01758 34.0073 8.09246C33.9222 8.16732 33.8613 8.24217 33.7885 8.32952C33.7277 8.4044 33.6546 8.49172 33.6061 8.57907C33.5453 8.66642 33.4844 8.75374 33.4359 8.84109C33.3871 8.9409 33.3508 9.02825 33.302 9.12807C33.2657 9.22788 33.2292 9.31523 33.2049 9.41504C33.1683 9.52733 33.1441 9.62717 33.1198 9.72698C33.1075 9.7769 33.1075 9.83927 33.0953 9.88918C33.0833 9.9391 33.0833 9.989 33.071 10.0389C33.071 10.1387 33.059 10.251 33.059 10.3508C33.059 10.4257 33.059 10.5006 33.071 10.5754C33.071 10.6752 33.0833 10.7751 33.1075 10.8874C33.1198 10.9872 33.1441 11.087 33.1683 11.1868C33.2049 11.2866 33.2292 11.3865 33.2657 11.4863C33.29 11.5487 33.3265 11.6111 33.3508 11.661L30.5543 10.5505C30.08 10.4132 29.618 10.2884 29.1438 10.1762C28.8885 10.1138 28.6332 10.0514 28.3777 9.989C27.6482 9.83927 26.9066 9.72698 26.1648 9.65213C26.1406 9.65213 26.1285 9.63961 26.104 9.63961C25.3745 9.56476 24.6572 9.52733 23.9277 9.52733C23.3926 9.52733 22.8578 9.55227 22.3349 9.58972C21.5932 9.63963 20.8516 9.73943 20.1099 9.8642C19.9275 9.88914 19.7451 9.92659 19.5627 9.96404C19.1858 10.0389 18.821 10.1262 18.4684 10.2136C18.2861 10.2635 18.1037 10.3134 17.9213 10.3633C17.7389 10.4382 17.5687 10.5255 17.3985 10.6004C17.2647 10.6628 17.131 10.7251 16.9972 10.7875C16.9729 10.8 16.9486 10.8 16.9364 10.8125C16.8149 10.8748 16.7054 10.9247 16.596 10.9872C16.5595 10.9996 16.5352 11.0121 16.5109 11.0246C16.3771 11.087 16.2434 11.1618 16.134 11.2242C16.0489 11.2616 15.9637 11.3116 15.8908 11.349C15.8543 11.3739 15.8057 11.3989 15.7814 11.4114C15.6719 11.4738 15.5625 11.5362 15.4652 11.5985C15.3558 11.6609 15.2585 11.7233 15.1734 11.7857C15.0883 11.8481 15.0032 11.898 14.9303 11.9604C14.9181 11.9729 14.906 11.9729 14.8938 11.9853C14.8208 12.0352 14.7357 12.0976 14.6628 12.16C14.6628 12.16 14.6506 12.1725 14.6385 12.1849C14.5777 12.2349 14.5169 12.2847 14.4561 12.3347C14.4318 12.3471 14.4074 12.3721 14.3831 12.3846C14.3223 12.4345 14.2615 12.4969 14.2008 12.5468C14.1886 12.5717 14.1643 12.5842 14.1521 12.5967C14.0791 12.6716 14.0062 12.734 13.9332 12.8088C13.9211 12.8088 13.9211 12.8213 13.9089 12.8338C13.836 12.8961 13.763 12.971 13.6901 13.0459C13.6779 13.0584 13.6779 13.0708 13.6658 13.0708C13.605 13.1332 13.5442 13.1956 13.4834 13.2704C13.4591 13.2954 13.4226 13.3204 13.3983 13.3453C13.3375 13.4202 13.2645 13.495 13.1916 13.5699C13.1794 13.5948 13.1551 13.6073 13.1429 13.6323C13.0457 13.7321 12.9605 13.8319 12.8633 13.9317C12.8511 13.9442 12.839 13.9567 12.8268 13.9692C12.6323 14.1813 12.4256 14.3934 12.2067 14.5806C11.9879 14.7802 11.7569 14.9674 11.5258 15.1296C11.2826 15.3043 11.0516 15.454 10.7963 15.6037C10.5531 15.7409 10.2978 15.8657 10.0303 15.978C9.77496 16.0903 9.50747 16.1901 9.23998 16.2775C8.72931 16.3898 8.2065 16.6019 7.75662 16.6393C7.65934 16.6393 7.54992 16.6642 7.45264 16.6767C7.34322 16.7017 7.24594 16.7267 7.14869 16.7516C7.05141 16.789 6.95413 16.8265 6.85688 16.8639C6.7596 16.9013 6.66234 16.9512 6.56506 17.0012C6.47995 17.0635 6.38269 17.1134 6.29758 17.1758C6.21246 17.2382 6.12734 17.3131 6.05439 17.388C5.9693 17.4503 5.88418 17.5377 5.81123 17.6125C5.73827 17.6999 5.66532 17.7747 5.60453 17.8621C5.54374 17.9619 5.47079 18.0493 5.42214 18.1491C5.36135 18.2364 5.30056 18.3362 5.25193 18.436C5.20326 18.5483 5.15465 18.6482 5.11816 18.7605C5.0817 18.8603 5.04521 18.9726 5.00874 19.0849C4.98444 19.1847 4.96009 19.2845 4.94795 19.3843C4.94795 19.3968 4.93577 19.4093 4.93577 19.4217C4.91147 19.534 4.91147 19.6838 4.8993 19.7586C4.88712 19.846 4.875 19.9208 4.875 20.0082C4.875 20.0581 4.875 20.1205 4.88718 20.1704C4.89935 20.2577 4.91147 20.3326 4.93583 20.4075C4.96014 20.4823 4.98448 20.5572 5.02093 20.6321C5.02093 20.6446 5.02093 20.6446 5.02093 20.6446C5.05742 20.7194 5.10604 20.7943 5.15469 20.8691C5.20334 20.944 5.25195 21.0189 5.31274 21.0937C5.37355 21.1561 5.44651 21.231 5.51946 21.2934C5.59239 21.3682 5.66537 21.4306 5.75046 21.493C6.04227 21.755 6.11523 21.8424 6.49215 22.0419C6.55294 22.0795 6.61373 22.1045 6.68669 22.1419C6.69887 22.1419 6.71099 22.1543 6.72317 22.1543C6.72317 22.1793 6.72318 22.1917 6.73534 22.2167C6.74752 22.3164 6.77183 22.4164 6.79613 22.5162C6.82043 22.6284 6.85694 22.7283 6.89341 22.8156C6.92989 22.8904 6.9542 22.9653 6.99068 23.0403C7.00287 23.0652 7.01499 23.0902 7.02715 23.1026C7.07582 23.2024 7.12443 23.2897 7.17306 23.3772C7.23385 23.4644 7.29464 23.5517 7.35545 23.6392C7.41624 23.714 7.48919 23.8013 7.56215 23.8761C7.6351 23.9512 7.70805 24.0135 7.79315 24.0883C7.79315 24.0883 7.80533 24.1008 7.81745 24.1008C7.8904 24.1631 7.96336 24.2257 8.03631 24.2756C8.12142 24.3379 8.20654 24.3878 8.3038 24.4377C8.38891 24.4875 8.48619 24.5374 8.58345 24.575C8.6564 24.6124 8.74152 24.6374 8.82663 24.6623C8.83882 24.6748 8.85093 24.6748 8.87528 24.6873C8.92393 24.6997 8.9847 24.7122 9.03335 24.7247C8.99686 25.3984 8.9847 26.0347 9.082 26.2594C9.19142 26.509 9.72642 25.7477 10.2614 24.8743C10.1884 25.7353 10.1398 26.7459 10.2614 27.0454C10.3951 27.3573 11.1247 26.3841 11.7569 25.3111C20.3775 23.2647 28.2441 29.3788 29.0709 38.0131C28.9128 36.6653 27.2958 35.9168 26.554 36.104C26.1893 37.0272 25.5692 38.2126 24.5721 38.9487C24.6574 38.1253 24.6209 37.2767 24.4507 36.4534C24.1832 37.6012 23.6604 38.6743 22.9429 39.5975C21.7879 39.685 20.6328 39.111 20.0249 38.25C19.9762 38.2126 19.9641 38.1377 19.9276 38.0879C19.8911 38.0004 19.8546 37.9131 19.8303 37.8258C19.7938 37.7385 19.7695 37.651 19.7574 37.5638C19.7452 37.4765 19.7452 37.3892 19.7452 37.2892C19.7452 37.2269 19.7452 37.1645 19.7452 37.1022C19.7574 37.0147 19.7817 36.9274 19.806 36.8401C19.8303 36.7528 19.8546 36.6653 19.8911 36.5781C19.9397 36.4908 19.9762 36.4035 20.037 36.316C20.2437 35.7171 20.2437 35.2306 19.8668 34.9436C19.7938 34.8937 19.7209 34.8563 19.6357 34.8189C19.5871 34.8062 19.5263 34.7812 19.4777 34.7688C19.4412 34.7563 19.4169 34.7438 19.3804 34.7314C19.2953 34.7064 19.2102 34.6815 19.1251 34.669C19.04 34.6441 18.9549 34.6316 18.8698 34.6316C18.7846 34.6192 18.6874 34.6067 18.6023 34.6067C18.5415 34.6067 18.4807 34.6192 18.4199 34.6192C18.3226 34.6192 18.2375 34.6316 18.1524 34.6566C18.0673 34.669 17.9822 34.6815 17.8971 34.7064C17.8119 34.7314 17.7268 34.7565 17.6417 34.7939C17.5566 34.8313 17.4837 34.8687 17.3985 34.9062C17.3256 34.9436 17.2526 34.9934 17.1675 35.0308C14.3345 36.9274 16.0246 41.3693 17.9578 42.6545C17.2283 42.7919 16.4866 42.954 16.2799 43.1163C16.2678 43.1287 16.2556 43.1412 16.2556 43.1412C16.7785 43.4656 17.3256 43.7402 17.8971 43.9771C18.6752 44.2391 19.502 44.4763 19.8668 44.576V44.5885C20.876 44.8007 21.8973 44.8755 22.9308 44.8131C28.3171 44.4264 32.7306 40.2216 33.5332 34.6815C33.5575 34.7939 33.5818 34.8937 33.6061 35.0059C33.6426 35.2306 33.6912 35.4677 33.7157 35.7046C33.7157 35.7046 33.7157 35.7046 33.7157 35.7173C33.7399 35.8295 33.752 35.9417 33.7642 36.0417C33.7642 36.0666 33.7642 36.0791 33.7642 36.0916C33.7765 36.2038 33.7885 36.3162 33.7885 36.416C33.8008 36.5531 33.8128 36.6905 33.8128 36.8277C33.8128 36.89 33.8128 36.9526 33.8128 37.0274C33.8128 37.0897 33.825 37.1645 33.825 37.2269C33.825 37.3019 33.8128 37.3767 33.8128 37.4515C33.8128 37.5139 33.8128 37.5764 33.8128 37.6263C33.8128 37.7136 33.8008 37.7884 33.8008 37.8759C33.8008 37.9258 33.8008 37.9757 33.7885 38.038C33.7885 38.1253 33.7763 38.2128 33.7763 38.3125C33.764 38.3499 33.764 38.3873 33.764 38.4248C33.752 38.5247 33.7397 38.612 33.7277 38.7118C33.7277 38.7492 33.7277 38.7866 33.7154 38.8242C33.7032 38.9489 33.6789 39.0611 33.6669 39.186V39.1985V39.2109C33.6426 39.3232 33.6181 39.4481 33.5938 39.5603C33.5938 39.5728 33.5938 39.5852 33.5938 39.5977C33.5695 39.7099 33.5453 39.8223 33.521 39.9346C33.521 39.947 33.5087 39.972 33.5087 39.9844C33.4844 40.0969 33.4602 40.2091 33.4236 40.3215C33.4236 40.334 33.4236 40.3463 33.4236 40.3589C33.3871 40.4836 33.3506 40.5958 33.3263 40.7083C33.3143 40.7208 33.3143 40.7332 33.3143 40.7332C33.2777 40.8579 33.2412 40.9826 33.2047 41.1075C33.1561 41.2322 33.1196 41.3446 33.071 41.4693C33.0224 41.594 32.9859 41.7189 32.9373 41.8311C32.8886 41.956 32.84 42.0683 32.7914 42.1929H32.7792C32.7304 42.3054 32.6818 42.4301 32.621 42.5423C32.6088 42.5797 32.5968 42.6048 32.5845 42.6298C32.5725 42.6422 32.5725 42.6547 32.5602 42.6672C31.7699 44.3017 30.6028 45.7365 29.1438 46.8595C29.0464 46.9219 28.9491 46.9967 28.852 47.0717C28.8277 47.0964 28.7912 47.1091 28.7669 47.1341C28.6816 47.1964 28.5965 47.2587 28.4993 47.3211L28.5357 47.3961H28.5479C28.7181 47.3712 28.8883 47.346 29.0587 47.3211H29.0707C29.3868 47.2712 29.7031 47.2089 30.0192 47.1465C30.1043 47.1341 30.2014 47.1091 30.2868 47.0842C30.3473 47.0715 30.3961 47.0593 30.4569 47.0466C30.542 47.0341 30.6271 47.0092 30.7122 46.9967C30.7851 46.9717 30.8581 46.9593 30.931 46.9343C32.147 46.6349 33.3263 46.2232 34.457 45.7365C32.5239 48.4442 29.9341 50.6277 26.9066 52.0625C28.3049 51.9627 29.7031 51.7256 31.0526 51.3264C35.9526 49.8415 40.0745 46.4601 42.5427 41.9059C42.0441 44.7882 40.9254 47.5333 39.2719 49.9288C40.4514 49.1304 41.5336 48.207 42.5184 47.159C45.2418 44.2393 47.0292 40.5335 47.6371 36.5533C48.0506 38.5247 48.1722 40.5584 47.9898 42.5672C56.7684 30.0027 48.7193 16.9764 45.3514 13.5451C45.3392 13.5202 45.3271 13.5077 45.3271 13.4827C45.3149 13.4952 45.3149 13.4952 45.3149 13.5077C45.3149 13.4952 45.3149 13.4952 45.3026 13.4827C45.3026 13.6325 45.2904 13.7822 45.2783 13.9319C45.2418 14.2189 45.2055 14.4934 45.1567 14.7679C45.0959 15.0424 45.0231 15.3169 44.95 15.5914C44.8649 15.8534 44.7678 16.1279 44.6582 16.39C44.5488 16.6395 44.4272 16.9015 44.2935 17.1511C44.1597 17.3881 44.0138 17.6377 43.8558 17.8623C43.6977 18.0993 43.5275 18.3239 43.3573 18.536C43.1748 18.7606 42.9804 18.9603 42.7859 19.1599C42.6643 19.2722 42.5547 19.372 42.4333 19.4718C42.3359 19.5592 42.2508 19.634 42.1535 19.7214C41.9348 19.8961 41.7158 20.0583 41.4728 20.208C41.2418 20.3577 40.9985 20.5074 40.7553 20.6322C40.5 20.757 40.2447 20.8693 39.9894 20.9816C39.7339 21.0814 39.4664 21.1687 39.1991 21.2436C38.9315 21.3185 38.6518 21.3809 38.3844 21.4308C38.1047 21.4807 37.8251 21.5056 37.5576 21.5306C37.3631 21.5431 37.1684 21.5555 36.9739 21.5555C36.6944 21.5555 36.4146 21.5306 36.1471 21.5056C35.8675 21.4807 35.5879 21.4432 35.3204 21.3808C35.0406 21.3309 34.7733 21.256 34.5058 21.1687H34.4935C34.7611 21.1438 35.0286 21.1188 35.2961 21.0689C35.5757 21.019 35.8432 20.9566 36.1108 20.8817C36.3781 20.8069 36.6456 20.7195 36.9009 20.6197C37.1684 20.5199 37.4237 20.3951 37.6669 20.2703C37.9222 20.1456 38.1532 20.0083 38.3965 19.8586C38.6275 19.6964 38.8585 19.5342 39.0774 19.3595C39.2962 19.1848 39.5029 18.9977 39.6974 18.798C39.9041 18.6109 40.0865 18.3988 40.269 18.1866C40.4514 17.962 40.6216 17.7375 40.7795 17.5129C40.8038 17.4754 40.8283 17.4255 40.8526 17.3881C40.9742 17.1885 41.0956 16.9888 41.2052 16.7892C41.3389 16.5396 41.4605 16.2901 41.5699 16.0281C41.6793 15.766 41.7766 15.504 41.8617 15.2295C41.9468 14.9675 42.0076 14.693 42.0684 14.4185C42.1172 14.1315 42.1658 13.857 42.19 13.5825C42.2143 13.2955 42.2386 13.0086 42.2386 12.7341C42.2386 12.5344 42.2266 12.3348 42.2143 12.1352C42.19 11.8482 42.1535 11.5737 42.1172 11.2992C42.0684 11.0122 42.0076 10.7377 41.9348 10.4632C41.8497 10.2012 41.7646 9.92668 41.6672 9.66466C41.5699 9.40264 41.4485 9.1406 41.3268 8.89105C41.193 8.64152 41.0593 8.39197 40.9134 8.15491C40.7553 7.91783 40.5973 7.69324 40.4271 7.46865C40.2447 7.25653 40.0623 7.04443 39.8678 6.83231C39.7704 6.73249 39.6611 6.62021 39.5517 6.52039C39.0044 6.08368 38.433 5.67192 37.8616 5.2976C37.7765 5.24768 37.7035 5.21027 37.6184 5.17282C37.2172 4.91081 36.8403 4.77347 36.4634 4.6487Z" fill="#E0234E"/>
</g>
<defs>
<clipPath id="clip0_268_192">
<rect width="56" height="56" fill="white" transform="translate(0.5)"/>
</clipPath>
</defs>
</svg>
