<svg width="127" height="113" viewBox="0 0 127 113" fill="none" xmlns="http://www.w3.org/2000/svg">
<path id="Vector" d="M104.419 36.6234C103.102 36.17 101.737 35.7409 100.331 35.3351C100.562 34.3922 100.774 33.4616 100.963 32.5467C104.058 17.5245 102.034 5.42243 95.1247 1.43792C88.4993 -2.38269 77.6641 1.60091 66.7211 11.1243C65.6688 12.0401 64.6136 13.0096 63.5588 14.0258C62.856 13.3535 62.1543 12.7038 61.4544 12.0823C49.9858 1.89931 38.4903 -2.39196 31.5876 1.60408C24.9686 5.43576 23.0084 16.8128 25.7942 31.0495C26.0632 32.4246 26.3776 33.8289 26.7332 35.2567C25.1063 35.7185 23.5356 36.2109 22.0328 36.7347C8.58705 41.4224 0 48.7693 0 56.39C0 64.2606 9.21821 72.1551 23.223 76.9418C24.3282 77.3196 25.475 77.6768 26.6568 78.0158C26.2732 79.5601 25.9395 81.0733 25.6594 82.5492C23.0032 96.5388 25.0776 107.647 31.6789 111.455C38.4975 115.387 49.941 111.345 61.0841 101.605C61.9648 100.835 62.8487 100.018 63.7342 99.1622C64.8819 100.267 66.0278 101.313 67.1676 102.295C77.961 111.583 88.6212 115.333 95.2164 111.515C102.028 107.572 104.242 95.6387 101.368 81.1203C101.148 80.0115 100.893 78.8787 100.606 77.7258C101.41 77.4882 102.199 77.243 102.968 76.988C117.527 72.1641 127 64.3658 127 56.39C127 48.7417 118.136 41.3453 104.419 36.6234ZM101.262 71.8381C100.567 72.068 99.8547 72.2902 99.1286 72.5057C97.5213 67.4173 95.3521 62.0066 92.6975 56.4164C95.2307 50.9594 97.3161 45.6178 98.8784 40.5625C100.178 40.9384 101.438 41.335 102.654 41.7534C114.406 45.7991 121.575 51.7809 121.575 56.39C121.575 61.2995 113.833 67.6728 101.262 71.8381ZM96.0456 82.174C97.3165 88.5938 97.498 94.3981 96.6562 98.9355C95.8998 103.013 94.3787 105.731 92.4979 106.82C88.4955 109.136 79.9365 106.125 70.7058 98.1818C69.6477 97.2713 68.5818 96.299 67.5125 95.27C71.091 91.3562 74.6675 86.8063 78.1581 81.7533C84.2976 81.2085 90.098 80.3178 95.3582 79.1018C95.6172 80.1469 95.8474 81.1718 96.0456 82.174ZM43.2972 106.419C39.3868 107.8 36.2724 107.84 34.3898 106.754C30.3838 104.444 28.7184 95.525 30.9901 83.5611C31.2503 82.1909 31.56 80.7835 31.9169 79.3448C37.1194 80.4952 42.8774 81.3231 49.0316 81.822C52.5457 86.7666 56.2254 91.3115 59.9337 95.291C59.1235 96.0732 58.3165 96.8178 57.514 97.5195C52.5866 101.827 47.6488 104.882 43.2972 106.419ZM24.9776 71.8081C18.785 69.6915 13.6709 66.9406 10.1654 63.9387C7.01549 61.2412 5.42517 58.5631 5.42517 56.39C5.42517 51.7655 12.3197 45.867 23.8186 41.8578C25.2139 41.3713 26.6744 40.9129 28.1901 40.4823C29.7793 45.6518 31.864 51.0566 34.3799 56.522C31.8315 62.0686 29.7172 67.5595 28.1124 72.7896C27.0318 72.479 25.9849 72.1521 24.9776 71.8081ZM31.1185 30.0076C28.7318 17.81 30.3169 8.60849 34.3057 6.29953C38.5545 3.83979 47.9497 7.34686 57.8519 16.1394C58.4849 16.7014 59.1203 17.2896 59.7576 17.8981C56.0677 21.8603 52.4216 26.371 48.9387 31.2864C42.9658 31.8401 37.2483 32.7294 31.9915 33.9202C31.661 32.5908 31.3683 31.2846 31.1185 30.0076ZM85.9006 43.5347C84.6439 41.3641 83.3538 39.2448 82.0386 37.1834C86.0907 37.6956 89.973 38.3756 93.6189 39.2077C92.5243 42.7157 91.16 46.3835 89.5541 50.1435C88.4021 47.9564 87.1837 45.7512 85.9006 43.5347ZM63.5606 21.7755C66.063 24.4866 68.5691 27.5135 71.0341 30.7977C68.5501 30.6804 66.0355 30.6193 63.5 30.6193C60.9885 30.6193 58.4924 30.679 56.0238 30.7943C58.4912 27.5406 61.019 24.5178 63.5606 21.7755ZM41.0775 43.5722C39.8222 45.749 38.6264 47.9422 37.4924 50.1395C35.9125 46.3926 34.5609 42.708 33.4569 39.1503C37.0803 38.3395 40.9444 37.6764 44.9707 37.1739C43.6369 39.2543 42.3362 41.3897 41.0775 43.5722ZM45.0866 75.9931C40.9267 75.529 37.0046 74.9001 33.382 74.1116C34.5037 70.4904 35.8852 66.7272 37.4985 62.8996C38.6354 65.0953 39.836 67.2894 41.099 69.4708C42.3855 71.6932 43.7185 73.8702 45.0866 75.9931ZM63.7107 91.387C61.1393 88.6126 58.5744 85.5436 56.0695 82.2425C58.5012 82.3379 60.9804 82.3867 63.5 82.3867C66.0886 82.3867 68.6476 82.3284 71.1663 82.2162C68.6932 85.5768 66.1962 88.6505 63.7107 91.387ZM89.6059 62.7045C91.3034 66.5735 92.7343 70.317 93.8705 73.8765C90.1882 74.7165 86.2125 75.3931 82.0237 75.8959C83.342 73.8066 84.6435 71.6509 85.9223 69.4335C87.216 67.1901 88.4444 64.9433 89.6059 62.7045ZM81.2227 66.7231C79.2375 70.1653 77.1994 73.4513 75.1302 76.553C71.3616 76.8225 67.4682 76.9613 63.5 76.9613C59.5478 76.9613 55.7035 76.8385 52.0015 76.5982C49.849 73.4558 47.7666 70.1601 45.794 66.7527C43.8266 63.3546 42.0163 59.9278 40.3756 56.5202C42.0159 53.1047 43.8219 49.674 45.7779 46.282L45.7775 46.2827C47.7388 42.8816 49.8029 39.602 51.9355 36.4792C55.7125 36.1937 59.5856 36.0447 63.4998 36.0447C67.4316 36.0447 71.3099 36.1948 75.0857 36.4828C77.1858 39.5828 79.2359 42.8518 81.2049 46.2533C83.1962 49.693 85.0255 53.1008 86.6798 56.4431C85.0305 59.8428 83.2053 63.285 81.2227 66.7231ZM92.4147 6.13813C96.6675 8.59063 98.3213 18.4816 95.6493 31.4517C95.4789 32.2793 95.287 33.1223 95.0785 33.9765C89.8096 32.7608 84.088 31.8561 78.0977 31.2941C74.608 26.3247 70.9918 21.8069 67.362 17.8956C68.3379 16.9568 69.3124 16.0616 70.2829 15.2169C79.6589 7.05728 88.422 3.83572 92.4147 6.13813ZM63.5 45.0493C69.7632 45.0493 74.8407 50.1266 74.8407 56.39C74.8407 62.6531 69.7632 67.7306 63.5 67.7306C57.2368 67.7306 52.1593 62.6531 52.1593 56.39C52.1593 50.1266 57.2368 45.0493 63.5 45.0493Z" fill="#1EA6DB"/>
</svg>
