<svg width="57" height="56" viewBox="0 0 57 56" fill="none" xmlns="http://www.w3.org/2000/svg">
<g clip-path="url(#clip0_255_15683)">
<path fill-rule="evenodd" clip-rule="evenodd" d="M19.0199 24.0625C20.3322 18.8127 23.6139 16.1875 28.8636 16.1875C36.7386 16.1875 37.723 22.0938 41.6605 23.0781C44.2857 23.7346 46.5824 22.7502 48.5511 20.125C47.2389 25.3748 43.9572 28 38.7074 28C30.8324 28 29.848 22.0938 25.9105 21.1094C23.2853 20.4529 20.9886 21.4373 19.0199 24.0625ZM9.17615 35.875C10.4885 30.6252 13.7701 28 19.0199 28C26.8949 28 27.8793 33.9062 31.8168 34.8906C34.442 35.5471 36.7386 34.5627 38.7074 31.9375C37.3951 37.1873 34.1134 39.8125 28.8636 39.8125C20.9886 39.8125 20.0043 33.9062 16.0668 32.9219C13.4416 32.2654 11.1449 33.2498 9.17615 35.875Z" fill="url(#paint0_linear_255_15683)"/>
</g>
<defs>
<linearGradient id="paint0_linear_255_15683" x1="19.7855" y1="16.1875" x2="36.6293" y2="40.5781" gradientUnits="userSpaceOnUse">
<stop stop-color="#32B1C1"/>
<stop offset="1" stop-color="#14C6B7"/>
</linearGradient>
<clipPath id="clip0_255_15683">
<rect width="56" height="56" fill="white" transform="translate(0.863647)"/>
</clipPath>
</defs>
</svg>
