<svg width="146" height="88" viewBox="0 0 146 88" fill="none" xmlns="http://www.w3.org/2000/svg">
<path id="Vector" d="M72.5345 0C53.192 0 41.1029 9.67127 36.2673 29.0138C43.5207 19.3425 51.9831 15.7158 61.6544 18.1336C67.1724 19.5131 71.1164 23.5162 75.4819 27.9476C82.5935 35.1661 90.8243 43.5207 108.802 43.5207C128.144 43.5207 140.233 33.8495 145.069 14.5069C137.816 24.1782 129.353 27.8049 119.682 25.3871C114.164 24.0076 110.22 20.0045 105.854 15.5732C98.7429 8.35464 90.5121 0 72.5345 0ZM36.2673 43.5207C16.9247 43.5207 4.83564 53.192 0 72.5345C7.25345 62.8633 15.7158 59.2365 25.3871 61.6544C30.9051 63.0339 34.8491 67.037 39.2146 71.4683C46.3262 78.6868 54.557 87.0415 72.5345 87.0415C91.8771 87.0415 103.966 77.3702 108.802 58.0276C101.548 67.6989 93.086 71.3256 83.4147 68.9078C77.8967 67.5283 73.9527 63.5252 69.5872 59.0939C62.4756 51.8754 54.2448 43.5207 36.2673 43.5207Z" fill="#1EA6DB"/>
</svg>
