<svg width="57" height="56" viewBox="0 0 57 56" fill="none" xmlns="http://www.w3.org/2000/svg">
<g clip-path="url(#clip0_268_186)">
<path d="M50.4861 40.0175C49.8493 40.2587 49.1462 40.2581 48.5097 40.0162C47.8733 39.774 47.3474 39.3072 47.0318 38.7039C45.0492 35.7361 42.86 32.9022 40.7558 30.0075L39.8434 28.7912C37.3379 32.1482 34.8323 35.3712 32.5457 38.7161C32.2478 39.2927 31.7506 39.7414 31.1464 39.9785C30.5422 40.2159 29.8724 40.2253 29.2618 40.0054L38.6637 27.3925L29.9185 15.9958C30.5481 15.7685 31.2367 15.7654 31.8682 15.9869C32.4998 16.2085 33.0355 16.6413 33.3851 17.2121C35.4162 20.1798 37.6664 23.0138 39.9042 26.0181C42.1545 23.0381 44.3803 20.192 46.4602 17.2486C46.7597 16.6813 47.2573 16.2439 47.8584 16.0197C48.4593 15.7954 49.1219 15.7999 49.7198 16.0323L46.3263 20.5325C44.806 22.5393 43.31 24.5584 41.7288 26.5167C41.6013 26.6308 41.4994 26.7704 41.4296 26.9266C41.3598 27.0828 41.3237 27.2519 41.3237 27.4229C41.3237 27.5938 41.3598 27.7629 41.4296 27.9191C41.4994 28.0752 41.6013 28.2148 41.7288 28.329C44.6358 32.1847 47.5183 36.0524 50.4861 40.0175Z" fill="white"/>
<path d="M6.73608 27.2344C6.9915 26.0181 7.14963 24.6923 7.50234 23.4518C9.60652 15.9716 18.1814 12.8579 24.0803 17.492C27.5346 20.2043 28.3982 24.0478 28.2281 28.3778H8.76729C8.45106 36.1134 14.0338 40.784 21.1735 38.4C22.3316 37.9857 23.3683 37.2897 24.1901 36.3744C25.012 35.4592 25.5928 34.3536 25.8804 33.1577C26.2576 31.9414 26.8657 31.7347 28.0211 32.0873C27.8308 33.5681 27.3073 34.9864 26.4899 36.2357C25.6726 37.485 24.5826 38.5326 23.302 39.3C21.1861 40.4572 18.7586 40.9154 16.3665 40.6096C13.9744 40.3038 11.7403 39.2494 9.98358 37.5972C8.2457 35.6431 7.19487 33.1743 6.9915 30.567C6.9915 30.1536 6.83338 29.7399 6.74825 29.3508C6.74013 28.6291 6.73608 27.9237 6.73608 27.2344ZM8.79161 26.7113H26.3914C26.2818 21.1043 22.7425 17.1271 18.0233 17.0906C12.7689 17.0176 9.01056 20.9097 8.77945 26.6871L8.79161 26.7113Z" fill="white"/>
</g>
<defs>
<clipPath id="clip0_268_186">
<rect width="56" height="56" fill="white" transform="translate(0.611084)"/>
</clipPath>
</defs>
</svg>
