<svg width="57" height="56" viewBox="0 0 57 56" fill="none" xmlns="http://www.w3.org/2000/svg">
<g clip-path="url(#clip0_268_210)">
<path d="M10.6667 8.3125L12.5501 29.4422H36.768L35.9553 38.505L28.1578 40.6133L20.3749 38.5081L19.8545 32.6889H12.8409L13.8438 43.9066L28.156 47.8818L42.4863 43.9066L44.4076 22.4558H18.9408L18.3013 15.3004H45.0195H45.0409L45.6667 8.3125H10.6667Z" fill="#F24E1E"/>
<path d="M28.1667 8.3125H10.6667L12.5501 29.4422H28.1667V22.4558H18.9408L18.3013 15.3004H28.1667V8.3125Z" fill="#F24E1E"/>
<path d="M28.1667 40.6103L28.1577 40.6133L20.3748 38.5081L19.8545 32.6889H12.8408L13.8437 43.9066L28.156 47.8817L28.1667 47.8787V40.6103Z" fill="#F24E1E"/>
</g>
<defs>
<clipPath id="clip0_268_210">
<rect width="56" height="56" fill="white" transform="translate(0.166748)"/>
</clipPath>
</defs>
</svg>
