<svg width="57" height="56" viewBox="0 0 57 56" fill="none" xmlns="http://www.w3.org/2000/svg">
<path d="M4.27794 35.8559L9.71968 33.3524C10.7695 34.7674 11.7245 35.9646 14.0152 35.9646C16.2109 35.9646 17.5953 35.3117 17.5953 32.772V15.5H24.2778V32.8438C24.2778 38.1051 20.2208 40.5 14.3015 40.5C8.95599 40.5 5.85305 38.3959 4.27794 35.8559Z" fill="#F2901E"/>
<path d="M32.2778 35.3708L36.9591 33.0037C38.1916 34.7613 39.7933 36.0525 42.6268 36.0525C45.0092 36.0525 46.5282 35.0122 46.5282 33.5774C46.5282 31.8559 44.9676 31.246 42.3393 30.242L40.9022 29.7037C36.7541 28.1617 34.0024 26.2247 34.0024 22.1358C34.0024 18.3695 37.288 15.5 42.4217 15.5C46.0768 15.5 48.7052 16.6121 50.5942 19.5173L46.1177 22.0281C45.1318 20.4858 44.0645 19.8761 42.4217 19.8761C40.7378 19.8761 39.67 20.8087 39.67 22.0281C39.67 23.5344 40.7378 24.1443 43.2018 25.0771L44.639 25.615C49.5261 27.4445 52.2778 29.3092 52.2778 33.5056C52.2778 38.0254 48.2122 40.5 42.7501 40.5C37.4113 40.5 33.9615 38.2762 32.2778 35.3708Z" fill="#F2901E"/>
</svg>
