<svg width="57" height="56" viewBox="0 0 57 56" fill="none" xmlns="http://www.w3.org/2000/svg">
<g clip-path="url(#clip0_268_175)">
<path fill-rule="evenodd" clip-rule="evenodd" d="M42.84 34.4905C43.0133 34.391 43.1574 34.2477 43.2578 34.0749C43.3583 33.9021 43.4114 33.7059 43.4121 33.5062L43.4326 26.9128C43.4331 26.7131 43.4864 26.5169 43.5868 26.3441C43.687 26.1713 43.8312 26.028 44.0044 25.9284L47.5786 23.8755C47.7518 23.7759 47.9481 23.7239 48.1478 23.7241C48.3475 23.7245 48.5437 23.7773 48.7165 23.8774C48.8896 23.9774 49.0331 24.1211 49.1328 24.2942C49.2326 24.4672 49.2853 24.6634 49.2853 24.8633V36.85C49.2853 37.0506 49.2323 37.2472 49.1319 37.4207C49.0315 37.5942 48.8872 37.7381 48.7133 37.8378L35.2249 45.5853C35.0525 45.6842 34.8574 45.7363 34.6588 45.7365C34.4602 45.7367 34.2648 45.6849 34.0924 45.5864L23.5069 39.5321C23.3326 39.4323 23.1875 39.2886 23.0867 39.1149C22.9858 38.9412 22.9327 38.7439 22.9327 38.5431V32.499C22.9327 32.4923 22.9408 32.4877 22.9476 32.4909C22.9533 32.4944 22.9611 32.4909 22.9611 32.4831V32.4763C22.9611 32.4717 22.9635 32.4671 22.9681 32.4649L31.6862 27.4564C31.6941 27.4518 31.6906 27.4393 31.6816 27.4393C31.6792 27.4393 31.6768 27.4383 31.675 27.4365C31.6735 27.435 31.6724 27.4326 31.6724 27.4302L31.6895 21.5045C31.6903 21.3042 31.6383 21.1071 31.5385 20.9333C31.439 20.7594 31.2951 20.615 31.1218 20.5144C30.9486 20.4139 30.7517 20.3609 30.5513 20.3607C30.3509 20.3605 30.1541 20.4131 29.9806 20.5133L23.5012 24.2469C23.3282 24.3464 23.1322 24.3989 22.9327 24.3989C22.7332 24.3989 22.5371 24.3464 22.3642 24.2469L15.8643 20.5042C15.6912 20.4045 15.4948 20.3521 15.295 20.3522C15.0952 20.3523 14.8989 20.405 14.7259 20.505C14.5529 20.605 14.4092 20.7487 14.3092 20.9217C14.2093 21.0947 14.1566 21.291 14.1565 21.4909V32.2004C14.1566 32.4002 14.1043 32.5962 14.0048 32.7692C13.9053 32.9422 13.7621 33.0862 13.5894 33.1863C13.4168 33.2868 13.2209 33.3399 13.0213 33.3406C12.8217 33.3412 12.6254 33.2896 12.4521 33.1905L8.84497 31.1283C8.67026 31.0286 8.52509 30.8842 8.42423 30.7101C8.32336 30.5362 8.27043 30.3384 8.27075 30.1372L8.30265 11.4181C8.30309 11.2185 8.35593 11.0226 8.4559 10.8499C8.55585 10.6771 8.69944 10.5337 8.87225 10.4339C9.04506 10.3341 9.24106 10.2815 9.44063 10.2813C9.64019 10.281 9.8363 10.3332 10.0094 10.4326L22.3653 17.5294C22.538 17.6286 22.7336 17.6808 22.9327 17.6808C23.1318 17.6808 23.3275 17.6286 23.5001 17.5294L35.8527 10.4326C36.026 10.3331 36.2224 10.2809 36.4221 10.2813C36.6221 10.2816 36.8183 10.3346 36.9913 10.4348C37.1641 10.535 37.3076 10.6789 37.4074 10.8521C37.5071 11.0253 37.5594 11.2217 37.5594 11.4215V30.1451C37.5594 30.3454 37.5067 30.5423 37.4065 30.7156C37.3063 30.889 37.1622 31.033 36.9885 31.1329L30.5194 34.8585C30.3457 34.9587 30.2015 35.103 30.1013 35.2767C30.0012 35.4504 29.9487 35.6477 29.9491 35.8483C29.9495 36.0487 30.0029 36.2456 30.104 36.419C30.2048 36.5923 30.3498 36.7358 30.524 36.8353L34.0924 38.8666C34.2648 38.9648 34.4599 39.0163 34.6583 39.0158C34.8568 39.0154 35.0517 38.9633 35.2238 38.8644L42.84 34.4905ZM43.5886 17.6946C43.5888 17.8961 43.6424 18.094 43.7439 18.268C43.8454 18.442 43.9913 18.586 44.1668 18.6852C44.342 18.7845 44.5406 18.8354 44.7421 18.833C44.9435 18.8305 45.1406 18.7746 45.3137 18.671L48.7316 16.6202C48.9003 16.5192 49.0398 16.3761 49.137 16.205C49.2341 16.0339 49.2851 15.8405 49.2853 15.6438V11.4648C49.2848 11.2634 49.231 11.0657 49.1295 10.8919C49.0278 10.718 48.8819 10.5742 48.7067 10.4751C48.5313 10.3759 48.3328 10.3251 48.1316 10.3276C47.9301 10.3302 47.733 10.386 47.5602 10.4895L44.1423 12.5403C43.9736 12.6414 43.8338 12.7845 43.7369 12.9556C43.6398 13.1267 43.5888 13.32 43.5886 13.5167V17.6958V17.6946Z" fill="#007FFF"/>
</g>
<defs>
<clipPath id="clip0_268_175">
<rect width="56" height="56" fill="white" transform="translate(0.833252)"/>
</clipPath>
</defs>
</svg>
