<svg width="57" height="56" viewBox="0 0 57 56" fill="none" xmlns="http://www.w3.org/2000/svg">
<g clip-path="url(#clip0_268_180)">
<path d="M26.9456 6.80671C28.0216 6.1908 29.4229 6.18806 30.4979 6.80671C35.9058 9.86245 41.3155 12.9135 46.7226 15.9711C47.7398 16.544 48.4199 17.6758 48.4096 18.8477V37.2326C48.4172 38.453 47.6698 39.6119 46.5968 40.1717C41.2066 43.2108 35.819 46.2534 30.4296 49.2925C29.3317 49.9203 27.9022 49.8719 26.8382 49.1925C25.2223 48.2558 23.6035 47.3235 21.9874 46.3877C21.6571 46.1908 21.2849 46.0342 21.0517 45.7139C21.2578 45.4361 21.6264 45.4016 21.9259 45.2802C22.6004 45.0656 23.2201 44.7212 23.8396 44.3872C23.9964 44.28 24.1876 44.3212 24.3379 44.417C25.7197 45.2093 27.0895 46.0248 28.476 46.8094C28.7717 46.9803 29.0712 46.7534 29.3241 46.6126C34.6134 43.6229 39.9094 40.6448 45.1981 37.6543C45.3941 37.56 45.5024 37.352 45.4864 37.1374C45.4901 31.0726 45.4873 25.0068 45.4884 18.942C45.5107 18.6984 45.3698 18.4745 45.1495 18.3748C39.7781 15.3497 34.4091 12.3201 29.0386 9.29429C28.8481 9.16328 28.5967 9.16295 28.406 9.29331C23.0352 12.3201 17.6675 15.3526 12.2969 18.3774C12.0774 18.4773 11.9302 18.6975 11.9563 18.942C11.9572 25.0068 11.9563 31.0726 11.9563 37.1383C11.9372 37.3529 12.0538 37.5565 12.2484 37.6488C13.6815 38.4615 15.1166 39.2685 16.5506 40.0785C17.3586 40.5132 18.3505 40.7717 19.2407 40.4386C20.0262 40.1568 20.5768 39.3551 20.5618 38.5212C20.5692 32.4918 20.5581 26.4615 20.5674 20.433C20.5478 20.1653 20.8016 19.9441 21.0619 19.9694C21.7506 19.9647 22.44 19.9601 23.1286 19.9712C23.4161 19.9647 23.6138 20.2529 23.5784 20.5226C23.5755 26.5902 23.5858 32.6578 23.5738 38.7253C23.5755 40.3425 22.9112 42.1022 21.4155 42.8934C19.5728 43.8478 17.2952 43.6454 15.4748 42.7302C13.8988 41.9436 12.3949 41.0152 10.8469 40.1726C9.77113 39.6158 9.02735 38.4523 9.03492 37.2328V18.8477C9.02364 17.6516 9.73096 16.4992 10.7796 15.9347C16.169 12.8933 21.5574 9.84946 26.9456 6.80671Z" fill="#81CD39"/>
<path d="M31.6474 19.5421C33.9978 19.3907 36.5141 19.4525 38.6292 20.6103C40.267 21.4977 41.1748 23.3601 41.2037 25.1794C41.158 25.4247 40.9014 25.5601 40.6671 25.5432C39.9853 25.5423 39.303 25.5526 38.6211 25.5386C38.3317 25.5498 38.1637 25.2831 38.1274 25.0274C37.9314 24.1568 37.4565 23.2947 36.6373 22.8747C35.3795 22.2451 33.9213 22.2768 32.5497 22.29C31.5485 22.3429 30.4718 22.4298 29.6235 23.0184C28.9723 23.4644 28.7745 24.3648 29.0069 25.09C29.226 25.6106 29.8269 25.7786 30.3189 25.9335C33.1515 26.6744 36.1532 26.6004 38.9318 27.5754C40.0822 27.9729 41.2074 28.7457 41.6012 29.9502C42.1163 31.5645 41.8906 33.4939 40.7419 34.7898C39.8105 35.8562 38.454 36.4368 37.101 36.752C35.3012 37.1534 33.4333 37.1637 31.6054 36.9854C29.8867 36.7894 28.0979 36.3379 26.7712 35.1669C25.6366 34.1817 25.0825 32.6465 25.1374 31.1651C25.1505 30.9148 25.3997 30.7403 25.6394 30.7608C26.3261 30.7554 27.0129 30.7534 27.6996 30.7619C27.9741 30.7423 28.1774 30.9794 28.1916 31.2379C28.318 32.0672 28.6297 32.9378 29.3531 33.4294C30.7488 34.33 32.5003 34.2683 34.0985 34.2934C35.4226 34.2348 36.909 34.2171 37.9894 33.3419C38.5594 32.8427 38.7283 32.0075 38.5743 31.2891C38.4074 30.6825 37.7728 30.3999 37.2279 30.2151C34.4316 29.3307 31.3963 29.6516 28.6271 28.6512C27.5027 28.254 26.4155 27.5028 25.9837 26.3478C25.3811 24.7131 25.6571 22.6909 26.9261 21.4388C28.1634 20.1933 29.9492 19.7137 31.6474 19.5421Z" fill="#81CD39"/>
</g>
<defs>
<clipPath id="clip0_268_180">
<rect width="56" height="56" fill="white" transform="translate(0.72229)"/>
</clipPath>
</defs>
</svg>
