<svg width="57" height="56" viewBox="0 0 57 56" fill="none" xmlns="http://www.w3.org/2000/svg">
<g clip-path="url(#clip0_268_217)">
<path d="M28.0559 32.1455C30.3099 32.1455 32.1369 30.3183 32.1369 28.0645C32.1369 25.8107 30.3099 23.9835 28.0559 23.9835C25.8021 23.9835 23.9749 25.8107 23.9749 28.0645C23.9749 30.3183 25.8021 32.1455 28.0559 32.1455Z" fill="#00D8FF"/>
<path fill-rule="evenodd" clip-rule="evenodd" d="M28.0561 19.767C33.5354 19.767 38.6254 20.5532 42.4634 21.8745C47.0876 23.4664 49.9307 25.8794 49.9307 28.0645C49.9307 30.3415 46.9176 32.905 41.9518 34.5502C38.1976 35.7941 33.2573 36.4433 28.0561 36.4433C22.7234 36.4433 17.6735 35.8339 13.877 34.5365C9.07374 32.8947 6.18066 30.2982 6.18066 28.0645C6.18066 25.8972 8.89526 23.5027 13.4544 21.9133C17.3067 20.5702 22.5224 19.767 28.0552 19.767H28.0561Z" stroke="#00D8FF" stroke-width="1.5"/>
<path fill-rule="evenodd" clip-rule="evenodd" d="M20.8327 23.9396C23.5701 19.1932 26.7939 15.1765 29.8559 12.5119C33.5449 9.30138 37.0559 8.04405 38.9485 9.1355C40.921 10.273 41.6365 14.164 40.581 19.2875C39.7837 23.161 37.8775 27.7648 35.2789 32.2707C32.6148 36.8902 29.5643 40.9603 26.544 43.6002C22.7223 46.9409 19.0274 48.1499 17.0926 47.0341C15.215 45.9522 14.4971 42.4038 15.3978 37.6602C16.1588 33.6521 18.0686 28.7326 20.8318 23.9396H20.8327Z" stroke="#00D8FF" stroke-width="1.5"/>
<path fill-rule="evenodd" clip-rule="evenodd" d="M20.8396 32.2827C18.0945 27.5415 16.2255 22.7417 15.4454 18.7582C14.5063 13.9586 15.1703 10.289 17.0613 9.19439C19.0319 8.05356 22.7601 9.37693 26.6718 12.8502C29.6293 15.4761 32.6662 19.4261 35.2722 23.9275C37.944 28.5427 39.9465 33.2185 40.7254 37.1534C41.7111 42.133 40.9133 45.9377 38.9802 47.0566C37.1047 48.1425 33.6723 46.993 30.0124 43.8434C26.9201 41.1825 23.6117 37.0711 20.8396 32.2827Z" stroke="#00D8FF" stroke-width="1.5"/>
</g>
<defs>
<clipPath id="clip0_268_217">
<rect width="56" height="56" fill="white" transform="translate(0.0556641)"/>
</clipPath>
</defs>
</svg>
