<svg width="53" height="31" viewBox="0 0 53 31" fill="none" xmlns="http://www.w3.org/2000/svg">
<path d="M0.354588 3.02449L0.33374 5.71289H4.60594H8.87814V17.8523V29.9914H11.9H14.9218V17.8523V5.71289H19.1939H23.466V3.07654C23.466 1.61771 23.435 0.398644 23.3932 0.36736C23.3619 0.325818 18.1623 0.30479 11.8582 0.315304L0.385847 0.346589L0.354588 3.02449Z" fill="#0277BD"/>
<path d="M45.1404 0.270171C46.8074 0.687125 48.0788 1.42693 49.2458 2.63548C49.8502 3.28168 50.7462 4.45921 50.8193 4.74051C50.84 4.82385 47.9849 6.74118 46.2553 7.81434C46.1927 7.85613 45.9425 7.58509 45.6612 7.16839C44.8173 5.93881 43.9316 5.40723 42.5768 5.31363C40.5867 5.17798 39.305 6.22011 39.3156 7.96025C39.3156 8.4708 39.3884 8.77287 39.5969 9.18983C40.0343 10.0963 40.8472 10.6381 43.4002 11.7426C48.0996 13.7643 50.1105 15.098 51.3611 16.9943C52.7574 19.1096 53.0699 22.4857 52.1217 24.9969C51.0798 27.7269 48.4955 29.5816 44.8588 30.1966C43.7336 30.3945 41.0659 30.3632 39.8574 30.1445C37.221 29.6755 34.7203 28.3731 33.1782 26.6642C32.5738 25.9973 31.3962 24.2571 31.4693 24.132C31.5003 24.0905 31.7714 23.9238 32.0735 23.7466C32.3653 23.5799 33.47 22.9442 34.5119 22.3398L36.3979 21.2456L36.7938 21.8293C37.3462 22.6732 38.5547 23.8299 39.2843 24.2153C41.3785 25.32 44.2547 25.1636 45.6717 23.8925C46.2761 23.3401 46.5261 22.767 46.5261 21.9231C46.5261 21.1623 46.4323 20.8289 46.0363 20.2558C45.5258 19.5265 44.4839 18.9116 41.5244 17.63C38.138 16.1711 36.6792 15.2646 35.3455 13.8266C34.5744 12.9932 33.8449 11.6592 33.5428 10.5443C33.2928 9.61704 33.2302 7.29327 33.4282 6.35551C34.1262 3.08372 36.5959 0.80175 40.1595 0.124262C41.3162 -0.0944728 44.0044 -0.011133 45.1404 0.270171Z" fill="#0277BD"/>
</svg>
